<svg width="24" height="23" viewBox="0 0 24 23" fill="none" xmlns="http://www.w3.org/2000/svg">
<path fill-rule="evenodd" clip-rule="evenodd" d="M16.668 16.6801L9 23L10.725 17.3101C4.69801 16.8501 0 13.1601 0 8.68005C0 3.89005 5.373 0 12 0C18.627 0 24 3.89005 24 8.68005C24 12.2801 20.977 15.3601 16.668 16.6801ZM12 1.81006C6.756 1.81006 2.506 4.89005 2.506 8.68005C2.506 12.4701 6.756 15.55 12 15.55C17.244 15.55 21.494 12.4701 21.494 8.68005C21.494 4.89005 17.243 1.81006 12 1.81006ZM7.5 8.16003H16.5V9.65002H7.5V8.16003ZM7.5 5.18994H16.5V6.68005H7.5V5.18994ZM14.259 12.61H9.759V11.13H14.259V12.61Z" fill="#2AACC8"/>
</svg>
