<svg width="24" height="20" viewBox="0 0 24 20" fill="none" xmlns="http://www.w3.org/2000/svg">
<path fill-rule="evenodd" clip-rule="evenodd" d="M17.825 14.009H16.267L13.116 11.149C14.463 10.7428 15.6839 9.99927 16.663 8.98901V8.36902C16.008 8.48902 14.534 7.97908 15.147 7.67908C15.4318 7.52008 15.6462 7.25924 15.747 6.94897C15.6881 6.77102 15.6528 6.58618 15.642 6.39905L15.628 6.12903C15.5901 6.14085 15.5507 6.1476 15.511 6.14905C15.46 6.14919 15.4095 6.13912 15.3624 6.11951C15.3153 6.09989 15.2725 6.0711 15.2367 6.03479C15.2009 5.99848 15.1726 5.95543 15.1536 5.90808C15.1346 5.86073 15.1252 5.81005 15.126 5.75903V4.96899C15.1262 4.8665 15.1668 4.76825 15.2388 4.69531C15.3108 4.62237 15.4085 4.58055 15.511 4.57898C15.523 4.57898 15.533 4.58899 15.544 4.58899L15.516 4.07898C15.4756 3.75169 15.5053 3.41959 15.603 3.10461C15.7006 2.78964 15.8641 2.49899 16.0825 2.25195C16.301 2.00491 16.5694 1.80711 16.8701 1.67163C17.1707 1.53615 17.4967 1.46606 17.8265 1.46606C18.1562 1.46606 18.4823 1.53615 18.783 1.67163C19.0836 1.80711 19.352 2.00491 19.5705 2.25195C19.7889 2.49899 19.9524 2.78964 20.05 3.10461C20.1477 3.41959 20.1774 3.75169 20.137 4.07898L20.108 4.58899C20.12 4.58899 20.129 4.57898 20.14 4.57898C20.2426 4.58055 20.3404 4.62228 20.4126 4.69519C20.4848 4.7681 20.5255 4.86641 20.526 4.96899V5.75903C20.5267 5.8101 20.5172 5.86073 20.498 5.90808C20.4789 5.95544 20.4506 5.99862 20.4147 6.03491C20.3787 6.07121 20.336 6.09991 20.2888 6.11951C20.2417 6.13911 20.1911 6.14918 20.14 6.14905C20.1003 6.14752 20.061 6.14078 20.023 6.12903L20.008 6.39905C19.9931 6.61124 19.9473 6.82011 19.872 7.01904C19.9775 7.30013 20.18 7.53426 20.443 7.67908C21.043 7.96908 19.668 8.45903 18.988 8.37903V8.98901C20.0439 10.0795 21.3754 10.8639 22.841 11.259C23.4372 11.7073 23.8487 12.3582 23.998 13.089V14.009H17.825ZM13.955 7.45898C13.889 7.45603 13.8238 7.44261 13.762 7.41907L13.737 7.849C13.7027 8.41199 13.5321 8.95829 13.24 9.4408C12.9479 9.9233 12.5429 10.3276 12.06 10.619V11.989C13.8145 13.7324 16.0008 14.9782 18.395 15.599C18.395 15.599 20.295 17.0691 20.295 18.5291V19.989H0V18.5291C0 17.0691 1.90002 15.599 1.90002 15.599C4.29413 14.9779 6.48029 13.7322 8.23499 11.989V10.619C7.75139 10.3281 7.34577 9.92396 7.0531 9.44141C6.76043 8.95885 6.5895 8.41231 6.55499 7.849L6.53101 7.41907C6.46991 7.4426 6.40543 7.45602 6.34003 7.45898C6.25699 7.45938 6.17468 7.44346 6.09784 7.41199C6.021 7.38052 5.95111 7.33416 5.89221 7.27563C5.83331 7.21711 5.78653 7.14756 5.75458 7.07092C5.72262 6.99429 5.70612 6.91201 5.70599 6.82898V5.57898C5.70612 5.49595 5.72262 5.4138 5.75458 5.33716C5.78653 5.26052 5.83331 5.19097 5.89221 5.13245C5.95111 5.07392 6.021 5.02757 6.09784 4.99609C6.17468 4.96462 6.25699 4.94858 6.34003 4.94897C6.35903 4.94897 6.37501 4.95898 6.39301 4.95898L6.34802 4.14905C6.30112 3.62165 6.36446 3.09019 6.53412 2.58862C6.70377 2.08706 6.976 1.62635 7.33344 1.23572C7.69087 0.845084 8.12572 0.533124 8.61029 0.319702C9.09486 0.10628 9.61853 -0.00390625 10.148 -0.00390625C10.6775 -0.00390625 11.2012 0.10628 11.6857 0.319702C12.1703 0.533124 12.6052 0.845084 12.9626 1.23572C13.32 1.62635 13.5922 2.08706 13.7618 2.58862C13.9315 3.09019 13.9949 3.62165 13.948 4.14905L13.901 4.95898C13.92 4.95898 13.935 4.94897 13.954 4.94897C14.037 4.94858 14.1193 4.96462 14.1962 4.99609C14.273 5.02757 14.3429 5.07392 14.4018 5.13245C14.4607 5.19097 14.5074 5.26052 14.5394 5.33716C14.5713 5.4138 14.5879 5.49595 14.588 5.57898V6.82898C14.5879 6.91193 14.5714 6.99411 14.5395 7.07068C14.5076 7.14725 14.4609 7.21675 14.4021 7.27527C14.3433 7.33378 14.2736 7.38009 14.1968 7.41162C14.1201 7.44315 14.038 7.45925 13.955 7.45898Z" fill="#2AACC8"/>
</svg>
