<svg width="25" height="24" viewBox="0 0 25 24" fill="none" xmlns="http://www.w3.org/2000/svg">
<mask id="mask0_0_558" style="mask-type:luminance" maskUnits="userSpaceOnUse" x="0" y="0" width="25" height="24">
<path fill-rule="evenodd" clip-rule="evenodd" d="M0.538574 23.9905H24.529V0H0.538574V23.9905Z" fill="white"/>
</mask>
<g mask="url(#mask0_0_558)">
<path fill-rule="evenodd" clip-rule="evenodd" d="M23.205 0H1.86262C1.13129 0 0.538574 0.592719 0.538574 1.32404V22.6664C0.538574 23.3977 1.13129 23.9906 1.86262 23.9906H13.3527V14.7001H10.2262V11.0795H13.3527V8.40935C13.3527 5.31074 15.2452 3.62346 18.0094 3.62346C19.3335 3.62346 20.4715 3.72198 20.8031 3.76602V7.00431L18.886 7.00521C17.3827 7.00521 17.0916 7.71955 17.0916 8.76782V11.0795H20.6769L20.2101 14.7001H17.0916V23.9906H23.205C23.9362 23.9906 24.529 23.3977 24.529 22.6664V1.32404C24.529 0.592719 23.9362 0 23.205 0Z" fill="#EBCB80"/>
</g>
</svg>
