<svg width="40" height="40" viewBox="0 0 40 40" fill="none" xmlns="http://www.w3.org/2000/svg">
<path d="M20 40C31.0457 40 40 31.0457 40 20C40 8.9543 31.0457 0 20 0C8.9543 0 0 8.9543 0 20C0 31.0457 8.9543 40 20 40Z" fill="#2AACC8"/>
<path fill-rule="evenodd" clip-rule="evenodd" d="M25.6241 27.991V26.674H28.5061V23.955H29.9921V27.991H25.6241ZM28.5061 12.313H25.6241V11H29.9921V15.036H28.5061V12.317V12.313ZM10.4921 15.032H9.0061V11H13.3741V12.317H10.4921V15.036V15.032ZM11.8921 13.715H27.1101V25.272H11.8881V13.715H11.8921ZM13.3781 23.955H25.6281V15.032H13.3781V23.955ZM14.8191 16.434H24.2321V22.553H14.8191V16.434ZM10.4961 26.674H13.3781V27.991H9.0101V23.955H10.4961V26.674Z" fill="white"/>
</svg>
