<svg width="24" height="24" viewBox="0 0 24 24" fill="none" xmlns="http://www.w3.org/2000/svg">
<mask id="mask0_0_561" style="mask-type:luminance" maskUnits="userSpaceOnUse" x="0" y="0" width="24" height="24">
<path fill-rule="evenodd" clip-rule="evenodd" d="M0 23.995H24V0H0V23.995Z" fill="white"/>
</mask>
<g mask="url(#mask0_0_561)">
<path fill-rule="evenodd" clip-rule="evenodd" d="M21.3334 6.66675C21.3334 7.03491 21.0349 7.33341 20.6667 7.33341H17.3334C16.9652 7.33341 16.6667 7.03491 16.6667 6.66675V3.33341C16.6667 2.96525 16.9652 2.66675 17.3334 2.66675H20.6667C21.0349 2.66675 21.3334 2.96525 21.3334 3.33341V6.66675ZM21.3334 20.6667C21.3334 21.0348 21.0349 21.3333 20.6667 21.3333H3.33341C2.96525 21.3333 2.66675 21.0348 2.66675 20.6667V10H4.94291C4.76308 10.6357 4.66675 11.3067 4.66675 12C4.66675 16.0501 7.95 19.3333 12.0001 19.3333C16.0502 19.3333 19.3334 16.0501 19.3334 12C19.3334 11.3067 19.2371 10.6357 19.0572 10H21.3334V20.6667ZM11.9999 7.33325C14.5773 7.33325 16.6666 9.42258 16.6666 11.9999C16.6666 14.5773 14.5773 16.6666 11.9999 16.6666C9.42258 16.6666 7.33325 14.5773 7.33325 11.9999C7.33325 9.42258 9.42258 7.33325 11.9999 7.33325ZM20.6667 0H3.33333C1.49242 0 0 1.49242 0 3.33333V20.6667C0 22.5076 1.49242 24 3.33333 24H20.6667C22.5076 24 24 22.5076 24 20.6667V3.33333C24 1.49242 22.5076 0 20.6667 0Z" fill="#EBCB80"/>
</g>
</svg>
