<svg width="26" height="24" viewBox="0 0 26 24" fill="none" xmlns="http://www.w3.org/2000/svg">
<mask id="mask0_0_571" style="mask-type:luminance" maskUnits="userSpaceOnUse" x="0" y="0" width="26" height="24">
<path fill-rule="evenodd" clip-rule="evenodd" d="M0.712646 23.96H25.4052V0H0.712646V23.96Z" fill="white"/>
</mask>
<g mask="url(#mask0_0_571)">
<path fill-rule="evenodd" clip-rule="evenodd" d="M21.7547 20.4507H18.0932V14.8807C18.0932 13.5527 18.0692 11.844 16.1898 11.844C14.2843 11.844 13.9935 13.2914 13.9935 14.786V20.4507H10.3354V8.99738H13.846V10.5634H13.8961C14.3845 9.66271 15.58 8.71338 17.362 8.71338C21.0695 8.71338 21.7547 11.0847 21.7547 14.1694V20.4507ZM6.2056 7.43262C5.02924 7.43262 4.0813 6.50796 4.0813 5.36796C4.0813 4.22862 5.02924 3.30396 6.2056 3.30396C7.37716 3.30396 8.32853 4.22862 8.32853 5.36796C8.32853 6.50796 7.37716 7.43262 6.2056 7.43262ZM4.37207 20.4506H8.03764V8.99731H4.37207V20.4506ZM23.5786 0H2.53446C1.52958 0 0.712646 0.774667 0.712646 1.73067V22.268C0.712646 23.224 1.52958 24 2.53446 24H23.5786C24.5862 24 25.4052 23.224 25.4052 22.268V1.73067C25.4052 0.774667 24.5862 0 23.5786 0Z" fill="#EBCB80"/>
</g>
</svg>
