<svg width="20" height="26" viewBox="0 0 20 26" fill="none" xmlns="http://www.w3.org/2000/svg">
<path fill-rule="evenodd" clip-rule="evenodd" d="M19.361 6.80918L15.861 12.8691C15.5955 13.3281 15.1584 13.6629 14.6461 13.7998C14.1338 13.9367 13.5881 13.8645 13.129 13.5991L12.263 13.0991L13.263 11.3691C13.377 11.4346 13.5027 11.477 13.6331 11.4939C13.7634 11.5107 13.8958 11.5016 14.0227 11.4673C14.1496 11.4329 14.2684 11.3739 14.3724 11.2936C14.4765 11.2132 14.5637 11.1132 14.629 10.9991L17.129 6.66917C17.1945 6.5559 17.237 6.43074 17.2541 6.301C17.2712 6.17127 17.2624 6.03942 17.2284 5.91306C17.1944 5.78671 17.1358 5.66832 17.0559 5.56467C16.976 5.46103 16.8765 5.37427 16.763 5.30918L13.299 3.30918C13.0701 3.17608 12.7977 3.13915 12.5416 3.20664C12.2855 3.27413 12.0666 3.44051 11.933 3.66917L9.43298 7.99912C9.30073 8.22953 9.26499 8.50295 9.33356 8.75962C9.40213 9.01629 9.56947 9.23536 9.79901 9.36912L8.79901 11.0991L7.93298 10.5991C7.47418 10.3339 7.13938 9.89746 7.00214 9.3856C6.86489 8.87373 6.93642 8.32829 7.20099 7.86912L10.701 1.80918C10.8314 1.58082 11.0058 1.38058 11.2142 1.22007C11.4225 1.05956 11.6606 0.94189 11.9147 0.874001C12.1687 0.806112 12.4338 0.789358 12.6944 0.824562C12.955 0.859766 13.206 0.946214 13.433 1.07908L18.633 4.07908C19.0911 4.34496 19.425 4.78175 19.5615 5.29356C19.698 5.80536 19.6259 6.35049 19.361 6.80918ZM7.53101 17.2992C7.30146 17.1654 7.13412 16.9462 7.06555 16.6896C6.99698 16.4329 7.03272 16.1596 7.16498 15.9292L11.165 8.99912C11.2985 8.77132 11.5168 8.60556 11.7721 8.53806C12.0274 8.47057 12.299 8.50686 12.5277 8.63889C12.7564 8.77093 12.9235 8.98805 12.9927 9.2429C13.0619 9.49774 13.0275 9.76956 12.897 9.99912L8.89697 16.9292C8.83164 17.0432 8.74448 17.1433 8.64044 17.2236C8.53641 17.3039 8.41758 17.363 8.29071 17.3973C8.16384 17.4317 8.03142 17.4407 7.90106 17.4238C7.7707 17.407 7.64497 17.3647 7.53101 17.2992ZM6.79901 14.5691C6.68589 14.5022 6.56063 14.4586 6.43048 14.4405C6.30033 14.4225 6.16789 14.4304 6.04083 14.4638C5.91377 14.4973 5.79458 14.5557 5.69025 14.6356C5.58591 14.7155 5.49847 14.8153 5.43298 14.9292L2.93298 19.2591C2.80073 19.4895 2.76499 19.763 2.83356 20.0196C2.90213 20.2763 3.06947 20.4954 3.29901 20.6291L6.763 22.6291C6.87696 22.6946 7.0027 22.737 7.13306 22.7539C7.26341 22.7707 7.39584 22.7616 7.52271 22.7273C7.64958 22.6929 7.7684 22.6339 7.87244 22.5536C7.97647 22.4732 8.0637 22.3732 8.12903 22.2591L10.629 17.9292C10.6948 17.816 10.7375 17.6908 10.7547 17.561C10.7719 17.4312 10.7633 17.2994 10.7292 17.173C10.6952 17.0465 10.6365 16.9281 10.5565 16.8244C10.4764 16.7208 10.3767 16.634 10.263 16.5691L11.263 14.8291L12.129 15.3291C12.5885 15.5962 12.9235 16.0345 13.0607 16.548C13.1979 17.0614 13.1261 17.6084 12.861 18.0691L9.36102 24.1291C9.09546 24.5881 8.65844 24.9229 8.14612 25.0598C7.6338 25.1967 7.08814 25.1245 6.62903 24.8591L1.42902 21.8591C0.970213 21.5939 0.635417 21.1575 0.49817 20.6456C0.360923 20.1337 0.432452 19.5883 0.697022 19.1291L4.19702 13.0691C4.32768 12.841 4.50202 12.6409 4.71008 12.4802C4.91815 12.3195 5.15587 12.2015 5.40961 12.1328C5.66335 12.0641 5.92813 12.046 6.18884 12.0797C6.44956 12.1134 6.70109 12.1981 6.92902 12.3291L7.79498 12.8291L6.79901 14.5691Z" fill="white"/>
</svg>
