<svg width="11" height="17" viewBox="0 0 11 17" fill="none" xmlns="http://www.w3.org/2000/svg">
<path fill-rule="evenodd" clip-rule="evenodd" d="M5.37769 16.7234C5.12891 16.7234 4.89746 16.5908 4.76636 16.3728C3.35718 14.0842 0 8.33862 0 5.54077C0 2.48071 2.40771 0 5.37769 0C8.34766 0 10.7554 2.48071 10.7554 5.54077C10.7554 8.33862 7.39819 14.0842 5.98926 16.3728C5.85791 16.5908 5.62671 16.7234 5.37769 16.7234ZM7.3335 5.1001C7.3335 6.24756 6.43042 7.17773 5.31665 7.17773C4.20288 7.17773 3.30005 6.24756 3.30005 5.1001C3.30005 3.95239 4.20288 3.02222 5.31665 3.02222C6.43042 3.02222 7.3335 3.95239 7.3335 5.1001Z" fill="white"/>
</svg>
