<svg width="145" height="39" viewBox="0 0 145 39" fill="none" xmlns="http://www.w3.org/2000/svg">
<path d="M13.55 32.75C14.8 32.75 15.85 32.6 16.7 32.3C17.55 32 18.225 31.6 18.725 31.1C19.2417 30.6 19.6083 30.0167 19.825 29.35C20.0583 28.6833 20.175 27.975 20.175 27.225C20.175 26.4417 20.05 25.7417 19.8 25.125C19.55 24.4917 19.1583 23.9583 18.625 23.525C18.0917 23.075 17.4 22.7333 16.55 22.5C15.7167 22.2667 14.7083 22.15 13.525 22.15H6.75V32.75H13.55ZM6.75 7.05V17.5H12.1C14.4 17.5 16.1333 17.0833 17.3 16.25C18.4833 15.4167 19.075 14.0917 19.075 12.275C19.075 10.3917 18.5417 9.05 17.475 8.25C16.4083 7.45 14.7417 7.05 12.475 7.05H6.75ZM12.475 1.85C14.8417 1.85 16.8667 2.075 18.55 2.525C20.2333 2.975 21.6083 3.61667 22.675 4.45C23.7583 5.28333 24.55 6.29167 25.05 7.475C25.55 8.65833 25.8 9.99166 25.8 11.475C25.8 12.325 25.675 13.1417 25.425 13.925C25.175 14.6917 24.7833 15.4167 24.25 16.1C23.7333 16.7667 23.0667 17.375 22.25 17.925C21.45 18.475 20.4917 18.9417 19.375 19.325C24.3417 20.4417 26.825 23.125 26.825 27.375C26.825 28.9083 26.5333 30.325 25.95 31.625C25.3667 32.925 24.5167 34.05 23.4 35C22.2833 35.9333 20.9083 36.6667 19.275 37.2C17.6417 37.7333 15.775 38 13.675 38H0.0250003V1.85H12.475ZM37.9207 12.35V38H31.7207V12.35H37.9207ZM38.7707 4.875C38.7707 5.40833 38.6624 5.90833 38.4457 6.375C38.229 6.84166 37.9374 7.25 37.5707 7.6C37.2207 7.95 36.804 8.23333 36.3207 8.45C35.8374 8.65 35.3207 8.75 34.7707 8.75C34.2374 8.75 33.729 8.65 33.2457 8.45C32.779 8.23333 32.3707 7.95 32.0207 7.6C31.6707 7.25 31.3874 6.84166 31.1707 6.375C30.9707 5.90833 30.8707 5.40833 30.8707 4.875C30.8707 4.325 30.9707 3.80833 31.1707 3.325C31.3874 2.84167 31.6707 2.425 32.0207 2.075C32.3707 1.725 32.779 1.45 33.2457 1.25C33.729 1.03333 34.2374 0.924999 34.7707 0.924999C35.3207 0.924999 35.8374 1.03333 36.3207 1.25C36.804 1.45 37.2207 1.725 37.5707 2.075C37.9374 2.425 38.229 2.84167 38.4457 3.325C38.6624 3.80833 38.7707 4.325 38.7707 4.875ZM59.866 17.35C59.6993 17.6167 59.5244 17.8083 59.341 17.925C59.1577 18.025 58.9243 18.075 58.641 18.075C58.341 18.075 58.016 17.9917 57.666 17.825C57.3327 17.6583 56.941 17.475 56.491 17.275C56.041 17.0583 55.5243 16.8667 54.941 16.7C54.3743 16.5333 53.6993 16.45 52.916 16.45C51.6993 16.45 50.741 16.7083 50.041 17.225C49.3577 17.7417 49.016 18.4167 49.016 19.25C49.016 19.8 49.191 20.2667 49.541 20.65C49.9077 21.0167 50.3827 21.3417 50.966 21.625C51.566 21.9083 52.241 22.1667 52.991 22.4C53.741 22.6167 54.4993 22.8583 55.266 23.125C56.0493 23.3917 56.816 23.7 57.566 24.05C58.316 24.3833 58.9827 24.8167 59.566 25.35C60.166 25.8667 60.641 26.4917 60.991 27.225C61.3577 27.9583 61.541 28.8417 61.541 29.875C61.541 31.1083 61.316 32.25 60.866 33.3C60.4327 34.3333 59.7827 35.2333 58.916 36C58.0494 36.75 56.9744 37.3417 55.691 37.775C54.4243 38.1917 52.9577 38.4 51.291 38.4C50.4077 38.4 49.541 38.3167 48.691 38.15C47.8577 38 47.0493 37.7833 46.266 37.5C45.4993 37.2167 44.7827 36.8833 44.116 36.5C43.466 36.1167 42.891 35.7 42.391 35.25L43.816 32.9C43.9993 32.6167 44.216 32.4 44.466 32.25C44.716 32.1 45.0327 32.025 45.416 32.025C45.7993 32.025 46.1577 32.1333 46.491 32.35C46.841 32.5667 47.241 32.8 47.691 33.05C48.141 33.3 48.666 33.5333 49.266 33.75C49.8827 33.9667 50.6577 34.075 51.591 34.075C52.3243 34.075 52.9493 33.9917 53.466 33.825C53.9993 33.6417 54.4327 33.4083 54.766 33.125C55.116 32.8417 55.366 32.5167 55.516 32.15C55.6827 31.7667 55.766 31.375 55.766 30.975C55.766 30.375 55.5827 29.8833 55.216 29.5C54.866 29.1167 54.391 28.7833 53.791 28.5C53.2077 28.2167 52.5327 27.9667 51.766 27.75C51.016 27.5167 50.241 27.2667 49.441 27C48.6577 26.7333 47.8827 26.425 47.116 26.075C46.366 25.7083 45.691 25.25 45.091 24.7C44.5077 24.15 44.0327 23.475 43.666 22.675C43.316 21.875 43.141 20.9083 43.141 19.775C43.141 18.725 43.3493 17.725 43.766 16.775C44.1827 15.825 44.791 15 45.591 14.3C46.4077 13.5833 47.416 13.0167 48.616 12.6C49.8327 12.1667 51.2327 11.95 52.816 11.95C54.5827 11.95 56.191 12.2417 57.641 12.825C59.091 13.4083 60.2993 14.175 61.266 15.125L59.866 17.35Z" fill="black"/>
<path d="M87.7039 32.45V38H66.5289V1.85H73.2539V32.45H87.7039ZM97.9305 12.35V38H91.7305V12.35H97.9305ZM98.7805 4.875C98.7805 5.40833 98.6721 5.90833 98.4555 6.375C98.2388 6.84166 97.9471 7.25 97.5805 7.6C97.2305 7.95 96.8138 8.23333 96.3305 8.45C95.8471 8.65 95.3305 8.75 94.7805 8.75C94.2471 8.75 93.7388 8.65 93.2555 8.45C92.7888 8.23333 92.3805 7.95 92.0305 7.6C91.6805 7.25 91.3971 6.84166 91.1805 6.375C90.9805 5.90833 90.8805 5.40833 90.8805 4.875C90.8805 4.325 90.9805 3.80833 91.1805 3.325C91.3971 2.84167 91.6805 2.425 92.0305 2.075C92.3805 1.725 92.7888 1.45 93.2555 1.25C93.7388 1.03333 94.2471 0.924999 94.7805 0.924999C95.3305 0.924999 95.8471 1.03333 96.3305 1.25C96.8138 1.45 97.2305 1.725 97.5805 2.075C97.9471 2.425 98.2388 2.84167 98.4555 3.325C98.6721 3.80833 98.7805 4.325 98.7805 4.875ZM112.776 38.4C110.542 38.4 108.826 37.775 107.626 36.525C106.442 35.2583 105.851 33.5167 105.851 31.3V16.975H103.226C102.892 16.975 102.609 16.8667 102.376 16.65C102.142 16.4333 102.026 16.1083 102.026 15.675V13.225L106.151 12.55L107.451 5.55C107.534 5.21666 107.692 4.95833 107.926 4.775C108.159 4.59167 108.459 4.5 108.826 4.5H112.026V12.575H118.876V16.975H112.026V30.875C112.026 31.675 112.217 32.3 112.601 32.75C113.001 33.2 113.542 33.425 114.226 33.425C114.609 33.425 114.926 33.3833 115.176 33.3C115.442 33.2 115.667 33.1 115.851 33C116.051 32.9 116.226 32.8083 116.376 32.725C116.526 32.625 116.676 32.575 116.826 32.575C117.009 32.575 117.159 32.625 117.276 32.725C117.392 32.8083 117.517 32.9417 117.651 33.125L119.501 36.125C118.601 36.875 117.567 37.4417 116.401 37.825C115.234 38.2083 114.026 38.4 112.776 38.4ZM139.159 22.225C139.159 21.425 139.042 20.675 138.809 19.975C138.592 19.2583 138.259 18.6333 137.809 18.1C137.359 17.5667 136.784 17.15 136.084 16.85C135.401 16.5333 134.601 16.375 133.684 16.375C131.901 16.375 130.492 16.8833 129.459 17.9C128.442 18.9167 127.792 20.3583 127.509 22.225H139.159ZM127.384 25.95C127.484 27.2667 127.717 28.4083 128.084 29.375C128.451 30.325 128.934 31.1167 129.534 31.75C130.134 32.3667 130.842 32.8333 131.659 33.15C132.492 33.45 133.409 33.6 134.409 33.6C135.409 33.6 136.267 33.4833 136.984 33.25C137.717 33.0167 138.351 32.7583 138.884 32.475C139.434 32.1917 139.909 31.9333 140.309 31.7C140.726 31.4667 141.126 31.35 141.509 31.35C142.026 31.35 142.409 31.5417 142.659 31.925L144.434 34.175C143.751 34.975 142.984 35.65 142.134 36.2C141.284 36.7333 140.392 37.1667 139.459 37.5C138.542 37.8167 137.601 38.0417 136.634 38.175C135.684 38.3083 134.759 38.375 133.859 38.375C132.076 38.375 130.417 38.0833 128.884 37.5C127.351 36.9 126.017 36.025 124.884 34.875C123.751 33.7083 122.859 32.275 122.209 30.575C121.559 28.8583 121.234 26.875 121.234 24.625C121.234 22.875 121.517 21.2333 122.084 19.7C122.651 18.15 123.459 16.8083 124.509 15.675C125.576 14.525 126.867 13.6167 128.384 12.95C129.917 12.2833 131.642 11.95 133.559 11.95C135.176 11.95 136.667 12.2083 138.034 12.725C139.401 13.2417 140.576 14 141.559 15C142.542 15.9833 143.309 17.2 143.859 18.65C144.426 20.0833 144.709 21.725 144.709 23.575C144.709 24.5083 144.609 25.1417 144.409 25.475C144.209 25.7917 143.826 25.95 143.259 25.95H127.384Z" fill="#2AACC8"/>
</svg>
