<svg width="35" height="25" viewBox="0 0 35 25" fill="none" xmlns="http://www.w3.org/2000/svg">
<path fill-rule="evenodd" clip-rule="evenodd" d="M0.162109 12.4803C0.162109 12.4803 6.76213 0.820312 17.3251 0.820312C27.3251 0.820312 34.8051 12.4803 34.8051 12.4803C34.8051 12.4803 27.2621 24.1404 17.3251 24.1404C6.69913 24.1404 0.162109 12.4803 0.162109 12.4803ZM17.4182 7.26038C18.4532 7.26117 19.4647 7.56868 20.325 8.14417C21.1852 8.71965 21.8555 9.5373 22.2513 10.4937C22.647 11.45 22.7504 12.5022 22.5484 13.5173C22.3464 14.5324 21.8479 15.4647 21.1161 16.1967C20.3844 16.9286 19.4521 17.4273 18.437 17.6295C17.422 17.8318 16.3698 17.7285 15.4133 17.3329C14.4569 16.9373 13.6392 16.2671 13.0635 15.407C12.4879 14.5468 12.1801 13.5354 12.1791 12.5004C12.1786 11.8122 12.3138 11.1307 12.5768 10.4948C12.8399 9.85883 13.2258 9.28098 13.7123 8.79431C14.1989 8.30764 14.7767 7.92165 15.4125 7.65845C16.0484 7.39524 16.73 7.25998 17.4182 7.26038ZM17.4501 9.88037C17.9655 9.88077 18.4691 10.034 18.8973 10.3207C19.3256 10.6074 19.6592 11.0146 19.8559 11.491C20.0526 11.9673 20.1036 12.4913 20.0024 12.9966C19.9013 13.5019 19.6526 13.9659 19.2877 14.3298C18.9228 14.6937 18.4581 14.9412 17.9525 15.041C17.4469 15.1408 16.9231 15.0884 16.4473 14.8904C15.9715 14.6924 15.5652 14.3578 15.2796 13.9288C14.9941 13.4998 14.8422 12.9957 14.8431 12.4803C14.8431 12.1383 14.9106 11.7997 15.0417 11.4838C15.1728 11.1679 15.3649 10.8809 15.6071 10.6394C15.8493 10.3979 16.1367 10.2065 16.453 10.0763C16.7693 9.94604 17.1081 9.87945 17.4501 9.88037Z" fill="white"/>
</svg>
