<svg width="30" height="24" viewBox="0 0 30 24" fill="none" xmlns="http://www.w3.org/2000/svg">
<mask id="mask0_0_555" style="mask-type:luminance" maskUnits="userSpaceOnUse" x="0" y="0" width="30" height="24">
<path fill-rule="evenodd" clip-rule="evenodd" d="M0.00634766 23.9935H29.423V0.0883789H0.00634766V23.9935Z" fill="white"/>
</mask>
<g mask="url(#mask0_0_555)">
<path fill-rule="evenodd" clip-rule="evenodd" d="M29.4231 2.91898C28.3406 3.39909 27.1771 3.72357 25.9561 3.86951C27.2024 3.12239 28.1595 1.93939 28.6103 0.52985C27.4439 1.22154 26.152 1.72393 24.777 1.99471C23.6758 0.821509 22.107 0.0883789 20.3708 0.0883789C17.037 0.0883789 14.3341 2.79112 14.3341 6.12476C14.3341 6.59787 14.3876 7.0586 14.4905 7.5004C9.47354 7.24867 5.02558 4.84544 2.04829 1.19335C1.52868 2.0849 1.231 3.12185 1.231 4.22811C1.231 6.32235 2.29679 8.17003 3.91652 9.2525C2.92692 9.22119 1.9962 8.94965 1.18224 8.49753C1.18181 8.52271 1.18181 8.548 1.18181 8.5734C1.18181 11.4982 3.2626 13.938 6.02411 14.4925C5.51752 14.6304 4.98425 14.7042 4.43365 14.7042C4.0447 14.7042 3.66651 14.6664 3.29801 14.5959C4.06612 16.9942 6.29543 18.7394 8.93693 18.7881C6.871 20.4071 4.26813 21.3722 1.44 21.3722C0.952789 21.3722 0.472251 21.3437 0 21.2879C2.67143 23.0006 5.84448 23.9999 9.25345 23.9999C20.3567 23.9999 26.4284 14.8017 26.4284 6.82474C26.4284 6.563 26.4226 6.30266 26.411 6.04382C27.5903 5.19274 28.6138 4.12953 29.4231 2.91898Z" fill="#EBCB80"/>
</g>
</svg>
